# xmcd
# 
# Track frame offsets:
#     150
#     18415
#     33760
#     57192
#     74170
#     92017
#     113211
#     137344
#     155082
#     171917
#     192397
#     209889
#     229731
# 
# Disc length: 3343
# 
# Revision: 0
# Processed by: cddbd v1.5.2PL0 Copyright (c) Steve Scherf et al.
# Submitted via: fre:ac v1.0.17
# 
DISCID=bb0d0d0d
DTITLE=Dave Hole - Steel on Steel
DYEAR=0
DGENRE=Blues
TTITLE0=Blues Will Call Your Name
TTITLE1=Cold Rain
TTITLE2=Counting My Regrets
TTITLE3=Going Down
TTITLE4=Hook, Line and Sinker
TTITLE5=I Found Love
TTITLE6=I Won't Leave
TTITLE7=Killing Bite
TTITLE8=One Last Breath
TTITLE9=Quicksand
TTITLE10=Take Me To Chicago
TTITLE11=Wildfire
TTITLE12=Worry
EXTD=
EXTT0=
EXTT1=
EXTT2=
EXTT3=
EXTT4=
EXTT5=
EXTT6=
EXTT7=
EXTT8=
EXTT9=
EXTT10=
EXTT11=
EXTT12=
PLAYORDER=
